<?xml version="1.0" encoding="UTF-8" standalone="no"?><svg xmlns="http://www.w3.org/2000/svg" xmlns:xlink="http://www.w3.org/1999/xlink" contentScriptType="application/ecmascript" contentStyleType="text/css" height="1326px" preserveAspectRatio="none" style="width:944px;height:1326px;" version="1.1" viewBox="0 0 944 1326" width="944px" zoomAndPan="magnify"><defs><filter height="300%" id="f1rdze4sav0ztj" width="300%" x="-1" y="-1"><feGaussianBlur result="blurOut" stdDeviation="2.0"/><feColorMatrix in="blurOut" result="blurOut2" type="matrix" values="0 0 0 0 0 0 0 0 0 0 0 0 0 0 0 0 0 0 .4 0"/><feOffset dx="4.0" dy="4.0" in="blurOut2" result="blurOut3"/><feBlend in="SourceGraphic" in2="blurOut3" mode="normal"/></filter></defs><g><!--MD5=[175f95e045c1a44aed0b30df3abe0e5c]
class Program--><rect codeLine="1" fill="#FEFECE" filter="url(#f1rdze4sav0ztj)" height="48" id="Program" style="stroke:#A80036;stroke-width:1.5;" width="83" x="786.5" y="7"/><ellipse cx="801.5" cy="23" fill="#ADD1B2" rx="11" ry="11" style="stroke:#A80036;stroke-width:1.0;"/><path d="M801.6094,18.2813 Q800.6875,18.2813 799.9531,18.5938 Q799.2344,18.9063 798.7344,19.5 Q798.2344,20.0781 797.9531,20.9531 Q797.6875,21.8281 797.6875,22.9219 Q797.6875,24.3594 798.125,25.4063 Q798.5781,26.4531 799.4219,27 Q800.2813,27.5469 801.5938,27.5469 Q802.375,27.5469 803.0625,27.4219 Q803.7656,27.2813 804.7656,26.9688 L804.7656,28.8438 Q803.9063,29.1719 803.1406,29.2969 Q802.3906,29.4219 801.375,29.4219 Q799.4531,29.4219 798.1406,28.625 Q796.8438,27.8125 796.1875,26.3438 Q795.5313,24.8594 795.5313,22.8906 Q795.5313,21.4688 795.9219,20.2969 Q796.3281,19.1094 797.1094,18.2344 Q797.8906,17.3594 799.0313,16.8906 Q800.1719,16.4063 801.6406,16.4063 Q802.5938,16.4063 803.4844,16.6094 Q804.3906,16.7969 805.3281,17.2656 L804.5,19.0469 Q803.7188,18.6719 803.0625,18.4844 Q802.4063,18.2813 801.6094,18.2813 Z " fill="#000000"/><text fill="#000000" font-family="sans-serif" font-size="12" lengthAdjust="spacing" textLength="51" x="815.5" y="27.656">Program</text><line style="stroke:#A80036;stroke-width:1.5;" x1="787.5" x2="868.5" y1="39" y2="39"/><line style="stroke:#A80036;stroke-width:1.5;" x1="787.5" x2="868.5" y1="47" y2="47"/><!--MD5=[bbff307a16eb67954cf22551d1f19cd7]
class IAbstractData--><rect codeLine="3" fill="#FEFECE" filter="url(#f1rdze4sav0ztj)" height="77.9638" id="IAbstractData" style="stroke:#A80036;stroke-width:1.5;" width="172" x="102" y="675"/><ellipse cx="146.75" cy="691" fill="#B4A7E5" rx="11" ry="11" style="stroke:#A80036;stroke-width:1.0;"/><path d="M148.8438,697.5 L143.9375,697.5 L143.9375,696.125 L145.3594,695.8125 L145.3594,686.5313 L143.9375,686.1875 L143.9375,684.8281 L148.8438,684.8281 L148.8438,686.1875 L147.4219,686.5313 L147.4219,695.8125 L148.8438,696.125 L148.8438,697.5 Z " fill="#000000"/><text fill="#000000" font-family="sans-serif" font-size="12" font-style="italic" lengthAdjust="spacing" textLength="74" x="167.25" y="695.656">IAbstractData</text><line style="stroke:#A80036;stroke-width:1.5;" x1="103" x2="273" y1="707" y2="707"/><ellipse cx="113" cy="718" fill="none" rx="3" ry="3" style="stroke:#038048;stroke-width:1.0;"/><text fill="#000000" font-family="sans-serif" font-size="11" lengthAdjust="spacing" textLength="146" x="122" y="722.7589">(ulong, double): DataTuple</text><ellipse cx="113" cy="732.9819" fill="none" rx="3" ry="3" style="stroke:#038048;stroke-width:1.0;"/><text fill="#000000" font-family="sans-serif" font-size="11" lengthAdjust="spacing" textLength="63" x="122" y="737.7408">string: Uuid</text><line style="stroke:#A80036;stroke-width:1.5;" x1="103" x2="273" y1="744.9638" y2="744.9638"/><!--MD5=[450f3d8ac624ad693607a87a0cb4fcf3]
class IData--><rect codeLine="7" fill="#FEFECE" filter="url(#f1rdze4sav0ztj)" height="122.9094" id="IData" style="stroke:#A80036;stroke-width:1.5;" width="120" x="200" y="1080"/><ellipse cx="241.1" cy="1096" fill="#B4A7E5" rx="11" ry="11" style="stroke:#A80036;stroke-width:1.0;"/><path d="M243.1938,1102.5 L238.2875,1102.5 L238.2875,1101.125 L239.7094,1100.8125 L239.7094,1091.5313 L238.2875,1091.1875 L238.2875,1089.8281 L243.1938,1089.8281 L243.1938,1091.1875 L241.7719,1091.5313 L241.7719,1100.8125 L243.1938,1101.125 L243.1938,1102.5 Z " fill="#000000"/><text fill="#000000" font-family="sans-serif" font-size="12" font-style="italic" lengthAdjust="spacing" textLength="30" x="260.9" y="1100.656">IData</text><line style="stroke:#A80036;stroke-width:1.5;" x1="201" x2="319" y1="1112" y2="1112"/><ellipse cx="211" cy="1123" fill="none" rx="3" ry="3" style="stroke:#038048;stroke-width:1.0;"/><text fill="#000000" font-family="sans-serif" font-size="11" lengthAdjust="spacing" textLength="62" x="220" y="1127.7589">string: uuid</text><ellipse cx="211" cy="1137.9819" fill="none" rx="3" ry="3" style="stroke:#038048;stroke-width:1.0;"/><text fill="#000000" font-family="sans-serif" font-size="11" lengthAdjust="spacing" textLength="50" x="220" y="1142.7408">long: last</text><ellipse cx="211" cy="1152.9638" fill="none" rx="3" ry="3" style="stroke:#038048;stroke-width:1.0;"/><text fill="#000000" font-family="sans-serif" font-size="11" lengthAdjust="spacing" textLength="62" x="220" y="1157.7227">int: interval</text><ellipse cx="211" cy="1167.9457" fill="none" rx="3" ry="3" style="stroke:#038048;stroke-width:1.0;"/><text fill="#000000" font-family="sans-serif" font-size="11" lengthAdjust="spacing" textLength="84" x="220" y="1172.7046">string: protocol</text><ellipse cx="211" cy="1182.9276" fill="none" rx="3" ry="3" style="stroke:#038048;stroke-width:1.0;"/><text fill="#000000" font-family="sans-serif" font-size="11" lengthAdjust="spacing" textLength="94" x="220" y="1187.6865">double[][]: tuples</text><line style="stroke:#A80036;stroke-width:1.5;" x1="201" x2="319" y1="1194.9094" y2="1194.9094"/><!--MD5=[7753dbf9fcf53b78b8cad88bfa9d648b]
class IPacket--><rect codeLine="14" fill="#FEFECE" filter="url(#f1rdze4sav0ztj)" height="62.9819" id="IPacket" style="stroke:#A80036;stroke-width:1.5;" width="91" x="23.5" y="956"/><ellipse cx="47.5" cy="972" fill="#B4A7E5" rx="11" ry="11" style="stroke:#A80036;stroke-width:1.0;"/><path d="M49.5938,978.5 L44.6875,978.5 L44.6875,977.125 L46.1094,976.8125 L46.1094,967.5313 L44.6875,967.1875 L44.6875,965.8281 L49.5938,965.8281 L49.5938,967.1875 L48.1719,967.5313 L48.1719,976.8125 L49.5938,977.125 L49.5938,978.5 Z " fill="#000000"/><text fill="#000000" font-family="sans-serif" font-size="12" font-style="italic" lengthAdjust="spacing" textLength="39" x="63.5" y="976.656">IPacket</text><line style="stroke:#A80036;stroke-width:1.5;" x1="24.5" x2="113.5" y1="988" y2="988"/><ellipse cx="34.5" cy="999" fill="none" rx="3" ry="3" style="stroke:#038048;stroke-width:1.0;"/><text fill="#000000" font-family="sans-serif" font-size="11" lengthAdjust="spacing" textLength="65" x="43.5" y="1003.7589">Data[]: data</text><line style="stroke:#A80036;stroke-width:1.5;" x1="24.5" x2="113.5" y1="1010.9819" y2="1010.9819"/><!--MD5=[b1a74241cabd419d788a7defc23fdf2a]
class IMeterCollection--><rect codeLine="18" fill="#FEFECE" filter="url(#f1rdze4sav0ztj)" height="48" id="IMeterCollection" style="stroke:#A80036;stroke-width:1.5;" width="119" x="150.5" y="419.5"/><ellipse cx="165.5" cy="435.5" fill="#B4A7E5" rx="11" ry="11" style="stroke:#A80036;stroke-width:1.0;"/><path d="M167.5938,442 L162.6875,442 L162.6875,440.625 L164.1094,440.3125 L164.1094,431.0313 L162.6875,430.6875 L162.6875,429.3281 L167.5938,429.3281 L167.5938,430.6875 L166.1719,431.0313 L166.1719,440.3125 L167.5938,440.625 L167.5938,442 Z " fill="#000000"/><text fill="#000000" font-family="sans-serif" font-size="12" font-style="italic" lengthAdjust="spacing" textLength="87" x="179.5" y="440.156">IMeterCollection</text><line style="stroke:#A80036;stroke-width:1.5;" x1="151.5" x2="268.5" y1="451.5" y2="451.5"/><line style="stroke:#A80036;stroke-width:1.5;" x1="151.5" x2="268.5" y1="459.5" y2="459.5"/><!--MD5=[43c93783d80f82977d85e2450ae55411]
class IMeterEntity--><rect codeLine="19" fill="#FEFECE" filter="url(#f1rdze4sav0ztj)" height="77.9638" id="IMeterEntity" style="stroke:#A80036;stroke-width:1.5;" width="224" x="98" y="258"/><ellipse cx="173.25" cy="274" fill="#B4A7E5" rx="11" ry="11" style="stroke:#A80036;stroke-width:1.0;"/><path d="M175.3438,280.5 L170.4375,280.5 L170.4375,279.125 L171.8594,278.8125 L171.8594,269.5313 L170.4375,269.1875 L170.4375,267.8281 L175.3438,267.8281 L175.3438,269.1875 L173.9219,269.5313 L173.9219,278.8125 L175.3438,279.125 L175.3438,280.5 Z " fill="#000000"/><text fill="#000000" font-family="sans-serif" font-size="12" font-style="italic" lengthAdjust="spacing" textLength="65" x="193.75" y="278.656">IMeterEntity</text><line style="stroke:#A80036;stroke-width:1.5;" x1="99" x2="321" y1="290" y2="290"/><ellipse cx="109" cy="301" fill="none" rx="3" ry="3" style="stroke:#038048;stroke-width:1.0;"/><text fill="#000000" font-family="sans-serif" font-size="11" lengthAdjust="spacing" textLength="188" x="118" y="305.7589">IMeterCollection[]: MeterReadings</text><ellipse cx="109" cy="315.9819" fill="none" rx="3" ry="3" style="stroke:#038048;stroke-width:1.0;"/><text fill="#000000" font-family="sans-serif" font-size="11" lengthAdjust="spacing" textLength="198" x="118" y="320.7408">event: NewMeterCollectionAvailable</text><line style="stroke:#A80036;stroke-width:1.5;" x1="99" x2="321" y1="327.9638" y2="327.9638"/><!--MD5=[602d94b9061820e83ad93c6e5c390785]
class IRestGet--><rect codeLine="24" fill="#FEFECE" filter="url(#f1rdze4sav0ztj)" height="48" id="IRestGet" style="stroke:#A80036;stroke-width:1.5;" width="76" x="517" y="558.5"/><ellipse cx="532" cy="574.5" fill="#B4A7E5" rx="11" ry="11" style="stroke:#A80036;stroke-width:1.0;"/><path d="M534.0938,581 L529.1875,581 L529.1875,579.625 L530.6094,579.3125 L530.6094,570.0313 L529.1875,569.6875 L529.1875,568.3281 L534.0938,568.3281 L534.0938,569.6875 L532.6719,570.0313 L532.6719,579.3125 L534.0938,579.625 L534.0938,581 Z " fill="#000000"/><text fill="#000000" font-family="sans-serif" font-size="12" font-style="italic" lengthAdjust="spacing" textLength="44" x="546" y="579.156">IRestGet</text><line style="stroke:#A80036;stroke-width:1.5;" x1="518" x2="592" y1="590.5" y2="590.5"/><line style="stroke:#A80036;stroke-width:1.5;" x1="518" x2="592" y1="598.5" y2="598.5"/><!--MD5=[b5791b20de378dd9948ef484342fef8f]
class VzLoggerData--><rect codeLine="26" fill="#FEFECE" filter="url(#f1rdze4sav0ztj)" height="62.9819" id="VzLoggerData" style="stroke:#A80036;stroke-width:1.5;" width="114" x="12" y="814"/><ellipse cx="27" cy="830" fill="#ADD1B2" rx="11" ry="11" style="stroke:#A80036;stroke-width:1.0;"/><path d="M27.1094,825.2813 Q26.1875,825.2813 25.4531,825.5938 Q24.7344,825.9063 24.2344,826.5 Q23.7344,827.0781 23.4531,827.9531 Q23.1875,828.8281 23.1875,829.9219 Q23.1875,831.3594 23.625,832.4063 Q24.0781,833.4531 24.9219,834 Q25.7813,834.5469 27.0938,834.5469 Q27.875,834.5469 28.5625,834.4219 Q29.2656,834.2813 30.2656,833.9688 L30.2656,835.8438 Q29.4063,836.1719 28.6406,836.2969 Q27.8906,836.4219 26.875,836.4219 Q24.9531,836.4219 23.6406,835.625 Q22.3438,834.8125 21.6875,833.3438 Q21.0313,831.8594 21.0313,829.8906 Q21.0313,828.4688 21.4219,827.2969 Q21.8281,826.1094 22.6094,825.2344 Q23.3906,824.3594 24.5313,823.8906 Q25.6719,823.4063 27.1406,823.4063 Q28.0938,823.4063 28.9844,823.6094 Q29.8906,823.7969 30.8281,824.2656 L30,826.0469 Q29.2188,825.6719 28.5625,825.4844 Q27.9063,825.2813 27.1094,825.2813 Z " fill="#000000"/><text fill="#000000" font-family="sans-serif" font-size="12" lengthAdjust="spacing" textLength="82" x="41" y="834.656">VzLoggerData</text><line style="stroke:#A80036;stroke-width:1.5;" x1="13" x2="125" y1="846" y2="846"/><rect fill="none" height="6" style="stroke:#C82930;stroke-width:1.0;" width="6" x="20" y="854"/><text fill="#000000" font-family="sans-serif" font-size="11" lengthAdjust="spacing" textLength="83" x="32" y="861.7589">IPacket: packet</text><line style="stroke:#A80036;stroke-width:1.5;" x1="13" x2="125" y1="868.9819" y2="868.9819"/><!--MD5=[68aa4dbc83c42a5ab95e58aaf909810d]
class VzLoggerPacket--><rect codeLine="29" fill="#FEFECE" filter="url(#f1rdze4sav0ztj)" height="48" id="VzLoggerPacket" style="stroke:#A80036;stroke-width:1.5;" width="124" x="7" y="1117.5"/><ellipse cx="22" cy="1133.5" fill="#ADD1B2" rx="11" ry="11" style="stroke:#A80036;stroke-width:1.0;"/><path d="M22.1094,1128.7813 Q21.1875,1128.7813 20.4531,1129.0938 Q19.7344,1129.4063 19.2344,1130 Q18.7344,1130.5781 18.4531,1131.4531 Q18.1875,1132.3281 18.1875,1133.4219 Q18.1875,1134.8594 18.625,1135.9063 Q19.0781,1136.9531 19.9219,1137.5 Q20.7813,1138.0469 22.0938,1138.0469 Q22.875,1138.0469 23.5625,1137.9219 Q24.2656,1137.7813 25.2656,1137.4688 L25.2656,1139.3438 Q24.4063,1139.6719 23.6406,1139.7969 Q22.8906,1139.9219 21.875,1139.9219 Q19.9531,1139.9219 18.6406,1139.125 Q17.3438,1138.3125 16.6875,1136.8438 Q16.0313,1135.3594 16.0313,1133.3906 Q16.0313,1131.9688 16.4219,1130.7969 Q16.8281,1129.6094 17.6094,1128.7344 Q18.3906,1127.8594 19.5313,1127.3906 Q20.6719,1126.9063 22.1406,1126.9063 Q23.0938,1126.9063 23.9844,1127.1094 Q24.8906,1127.2969 25.8281,1127.7656 L25,1129.5469 Q24.2188,1129.1719 23.5625,1128.9844 Q22.9063,1128.7813 22.1094,1128.7813 Z " fill="#000000"/><text fill="#000000" font-family="sans-serif" font-size="12" lengthAdjust="spacing" textLength="92" x="36" y="1138.156">VzLoggerPacket</text><line style="stroke:#A80036;stroke-width:1.5;" x1="8" x2="130" y1="1149.5" y2="1149.5"/><line style="stroke:#A80036;stroke-width:1.5;" x1="8" x2="130" y1="1157.5" y2="1157.5"/><!--MD5=[60c9ed31c535bee25c55ce21b5b01399]
class Data--><rect codeLine="30" fill="#FEFECE" filter="url(#f1rdze4sav0ztj)" height="48" id="Data" style="stroke:#A80036;stroke-width:1.5;" width="59" x="39.5" y="1264"/><ellipse cx="54.5" cy="1280" fill="#ADD1B2" rx="11" ry="11" style="stroke:#A80036;stroke-width:1.0;"/><path d="M54.6094,1275.2813 Q53.6875,1275.2813 52.9531,1275.5938 Q52.2344,1275.9063 51.7344,1276.5 Q51.2344,1277.0781 50.9531,1277.9531 Q50.6875,1278.8281 50.6875,1279.9219 Q50.6875,1281.3594 51.125,1282.4063 Q51.5781,1283.4531 52.4219,1284 Q53.2813,1284.5469 54.5938,1284.5469 Q55.375,1284.5469 56.0625,1284.4219 Q56.7656,1284.2813 57.7656,1283.9688 L57.7656,1285.8438 Q56.9063,1286.1719 56.1406,1286.2969 Q55.3906,1286.4219 54.375,1286.4219 Q52.4531,1286.4219 51.1406,1285.625 Q49.8438,1284.8125 49.1875,1283.3438 Q48.5313,1281.8594 48.5313,1279.8906 Q48.5313,1278.4688 48.9219,1277.2969 Q49.3281,1276.1094 50.1094,1275.2344 Q50.8906,1274.3594 52.0313,1273.8906 Q53.1719,1273.4063 54.6406,1273.4063 Q55.5938,1273.4063 56.4844,1273.6094 Q57.3906,1273.7969 58.3281,1274.2656 L57.5,1276.0469 Q56.7188,1275.6719 56.0625,1275.4844 Q55.4063,1275.2813 54.6094,1275.2813 Z " fill="#000000"/><text fill="#000000" font-family="sans-serif" font-size="12" lengthAdjust="spacing" textLength="27" x="68.5" y="1284.656">Data</text><line style="stroke:#A80036;stroke-width:1.5;" x1="40.5" x2="97.5" y1="1296" y2="1296"/><line style="stroke:#A80036;stroke-width:1.5;" x1="40.5" x2="97.5" y1="1304" y2="1304"/><!--MD5=[e7948426fae7f09db307bc786f459a84]
class MeanPowerCalculator--><rect codeLine="32" fill="#FEFECE" filter="url(#f1rdze4sav0ztj)" height="62.9819" id="MeanPowerCalculator" style="stroke:#A80036;stroke-width:1.5;" width="180" x="402" y="116"/><ellipse cx="426.9" cy="132" fill="#ADD1B2" rx="11" ry="11" style="stroke:#A80036;stroke-width:1.0;"/><path d="M427.0094,127.2813 Q426.0875,127.2813 425.3531,127.5938 Q424.6344,127.9063 424.1344,128.5 Q423.6344,129.0781 423.3531,129.9531 Q423.0875,130.8281 423.0875,131.9219 Q423.0875,133.3594 423.525,134.4063 Q423.9781,135.4531 424.8219,136 Q425.6813,136.5469 426.9938,136.5469 Q427.775,136.5469 428.4625,136.4219 Q429.1656,136.2813 430.1656,135.9688 L430.1656,137.8438 Q429.3063,138.1719 428.5406,138.2969 Q427.7906,138.4219 426.775,138.4219 Q424.8531,138.4219 423.5406,137.625 Q422.2438,136.8125 421.5875,135.3438 Q420.9313,133.8594 420.9313,131.8906 Q420.9313,130.4688 421.3219,129.2969 Q421.7281,128.1094 422.5094,127.2344 Q423.2906,126.3594 424.4313,125.8906 Q425.5719,125.4063 427.0406,125.4063 Q427.9938,125.4063 428.8844,125.6094 Q429.7906,125.7969 430.7281,126.2656 L429.9,128.0469 Q429.1188,127.6719 428.4625,127.4844 Q427.8063,127.2813 427.0094,127.2813 Z " fill="#000000"/><text fill="#000000" font-family="sans-serif" font-size="12" lengthAdjust="spacing" textLength="126" x="443.1" y="136.656">MeanPowerCalculator</text><line style="stroke:#A80036;stroke-width:1.5;" x1="403" x2="581" y1="148" y2="148"/><line style="stroke:#A80036;stroke-width:1.5;" x1="403" x2="581" y1="156" y2="156"/><rect fill="#F24D5C" height="6" style="stroke:#C82930;stroke-width:1.0;" width="6" x="410" y="164"/><text fill="#000000" font-family="sans-serif" font-size="11" lengthAdjust="spacing" textLength="154" x="422" y="171.7589">void: CalculateMeanPower()</text><!--MD5=[b54b48ee1e4130006984566be54e7eed]
class MeterConfiguration--><rect codeLine="35" fill="#FEFECE" filter="url(#f1rdze4sav0ztj)" height="48" id="MeterConfiguration" style="stroke:#A80036;stroke-width:1.5;" width="145" x="665.5" y="273"/><ellipse cx="680.5" cy="289" fill="#ADD1B2" rx="11" ry="11" style="stroke:#A80036;stroke-width:1.0;"/><path d="M680.6094,284.2813 Q679.6875,284.2813 678.9531,284.5938 Q678.2344,284.9063 677.7344,285.5 Q677.2344,286.0781 676.9531,286.9531 Q676.6875,287.8281 676.6875,288.9219 Q676.6875,290.3594 677.125,291.4063 Q677.5781,292.4531 678.4219,293 Q679.2813,293.5469 680.5938,293.5469 Q681.375,293.5469 682.0625,293.4219 Q682.7656,293.2813 683.7656,292.9688 L683.7656,294.8438 Q682.9063,295.1719 682.1406,295.2969 Q681.3906,295.4219 680.375,295.4219 Q678.4531,295.4219 677.1406,294.625 Q675.8438,293.8125 675.1875,292.3438 Q674.5313,290.8594 674.5313,288.8906 Q674.5313,287.4688 674.9219,286.2969 Q675.3281,285.1094 676.1094,284.2344 Q676.8906,283.3594 678.0313,282.8906 Q679.1719,282.4063 680.6406,282.4063 Q681.5938,282.4063 682.4844,282.6094 Q683.3906,282.7969 684.3281,283.2656 L683.5,285.0469 Q682.7188,284.6719 682.0625,284.4844 Q681.4063,284.2813 680.6094,284.2813 Z " fill="#000000"/><text fill="#000000" font-family="sans-serif" font-size="12" lengthAdjust="spacing" textLength="113" x="694.5" y="293.656">MeterConfiguration</text><line style="stroke:#A80036;stroke-width:1.5;" x1="666.5" x2="809.5" y1="305" y2="305"/><line style="stroke:#A80036;stroke-width:1.5;" x1="666.5" x2="809.5" y1="313" y2="313"/><!--MD5=[9730542692b6c2dcc0277fdad618305c]
class MeterConfigurationWrapper--><rect codeLine="36" fill="#FEFECE" filter="url(#f1rdze4sav0ztj)" height="48" id="MeterConfigurationWrapper" style="stroke:#A80036;stroke-width:1.5;" width="196" x="617" y="123.5"/><ellipse cx="632" cy="139.5" fill="#ADD1B2" rx="11" ry="11" style="stroke:#A80036;stroke-width:1.0;"/><path d="M632.1094,134.7813 Q631.1875,134.7813 630.4531,135.0938 Q629.7344,135.4063 629.2344,136 Q628.7344,136.5781 628.4531,137.4531 Q628.1875,138.3281 628.1875,139.4219 Q628.1875,140.8594 628.625,141.9063 Q629.0781,142.9531 629.9219,143.5 Q630.7813,144.0469 632.0938,144.0469 Q632.875,144.0469 633.5625,143.9219 Q634.2656,143.7813 635.2656,143.4688 L635.2656,145.3438 Q634.4063,145.6719 633.6406,145.7969 Q632.8906,145.9219 631.875,145.9219 Q629.9531,145.9219 628.6406,145.125 Q627.3438,144.3125 626.6875,142.8438 Q626.0313,141.3594 626.0313,139.3906 Q626.0313,137.9688 626.4219,136.7969 Q626.8281,135.6094 627.6094,134.7344 Q628.3906,133.8594 629.5313,133.3906 Q630.6719,132.9063 632.1406,132.9063 Q633.0938,132.9063 633.9844,133.1094 Q634.8906,133.2969 635.8281,133.7656 L635,135.5469 Q634.2188,135.1719 633.5625,134.9844 Q632.9063,134.7813 632.1094,134.7813 Z " fill="#000000"/><text fill="#000000" font-family="sans-serif" font-size="12" lengthAdjust="spacing" textLength="164" x="646" y="144.156">MeterConfigurationWrapper</text><line style="stroke:#A80036;stroke-width:1.5;" x1="618" x2="812" y1="155.5" y2="155.5"/><line style="stroke:#A80036;stroke-width:1.5;" x1="618" x2="812" y1="163.5" y2="163.5"/><!--MD5=[2e106a23630f4b6dbcc2e8b427db271f]
class MeterEntityController--><rect codeLine="37" fill="#FEFECE" filter="url(#f1rdze4sav0ztj)" height="92.9457" id="MeterEntityController" style="stroke:#A80036;stroke-width:1.5;" width="261" x="523.5" y="397"/><ellipse cx="588.75" cy="413" fill="#ADD1B2" rx="11" ry="11" style="stroke:#A80036;stroke-width:1.0;"/><path d="M588.8594,408.2813 Q587.9375,408.2813 587.2031,408.5938 Q586.4844,408.9063 585.9844,409.5 Q585.4844,410.0781 585.2031,410.9531 Q584.9375,411.8281 584.9375,412.9219 Q584.9375,414.3594 585.375,415.4063 Q585.8281,416.4531 586.6719,417 Q587.5313,417.5469 588.8438,417.5469 Q589.625,417.5469 590.3125,417.4219 Q591.0156,417.2813 592.0156,416.9688 L592.0156,418.8438 Q591.1563,419.1719 590.3906,419.2969 Q589.6406,419.4219 588.625,419.4219 Q586.7031,419.4219 585.3906,418.625 Q584.0938,417.8125 583.4375,416.3438 Q582.7813,414.8594 582.7813,412.8906 Q582.7813,411.4688 583.1719,410.2969 Q583.5781,409.1094 584.3594,408.2344 Q585.1406,407.3594 586.2813,406.8906 Q587.4219,406.4063 588.8906,406.4063 Q589.8438,406.4063 590.7344,406.6094 Q591.6406,406.7969 592.5781,407.2656 L591.75,409.0469 Q590.9688,408.6719 590.3125,408.4844 Q589.6563,408.2813 588.8594,408.2813 Z " fill="#000000"/><text fill="#000000" font-family="sans-serif" font-size="12" lengthAdjust="spacing" textLength="122" x="609.25" y="417.656">MeterEntityController</text><line style="stroke:#A80036;stroke-width:1.5;" x1="524.5" x2="783.5" y1="429" y2="429"/><line style="stroke:#A80036;stroke-width:1.5;" x1="524.5" x2="783.5" y1="437" y2="437"/><ellipse cx="534.5" cy="448" fill="#84BE84" rx="3" ry="3" style="stroke:#038048;stroke-width:1.0;"/><text fill="#000000" font-family="sans-serif" font-size="11" lengthAdjust="spacing" textLength="87" x="543.5" y="452.7589">Task: CallLoop()</text><rect fill="#F24D5C" height="6" style="stroke:#C82930;stroke-width:1.0;" width="6" x="531.5" y="459.9819"/><text fill="#000000" font-family="sans-serif" font-size="11" lengthAdjust="spacing" textLength="179" x="543.5" y="467.7408">void: OnLastCollectionChanged()</text><rect fill="#F24D5C" height="6" style="stroke:#C82930;stroke-width:1.0;" width="6" x="531.5" y="474.9638"/><text fill="#000000" font-family="sans-serif" font-size="11" lengthAdjust="spacing" textLength="235" x="543.5" y="482.7227">void: HandleNewMeterCollection_DoWork()</text><!--MD5=[c2c8e848e5acfee4c1c190e564b8537a]
class PowerMeterCollection--><rect codeLine="42" fill="#FEFECE" filter="url(#f1rdze4sav0ztj)" height="48" id="PowerMeterCollection" style="stroke:#A80036;stroke-width:1.5;" width="159" x="197.5" y="558.5"/><ellipse cx="212.5" cy="574.5" fill="#ADD1B2" rx="11" ry="11" style="stroke:#A80036;stroke-width:1.0;"/><path d="M212.6094,569.7813 Q211.6875,569.7813 210.9531,570.0938 Q210.2344,570.4063 209.7344,571 Q209.2344,571.5781 208.9531,572.4531 Q208.6875,573.3281 208.6875,574.4219 Q208.6875,575.8594 209.125,576.9063 Q209.5781,577.9531 210.4219,578.5 Q211.2813,579.0469 212.5938,579.0469 Q213.375,579.0469 214.0625,578.9219 Q214.7656,578.7813 215.7656,578.4688 L215.7656,580.3438 Q214.9063,580.6719 214.1406,580.7969 Q213.3906,580.9219 212.375,580.9219 Q210.4531,580.9219 209.1406,580.125 Q207.8438,579.3125 207.1875,577.8438 Q206.5313,576.3594 206.5313,574.3906 Q206.5313,572.9688 206.9219,571.7969 Q207.3281,570.6094 208.1094,569.7344 Q208.8906,568.8594 210.0313,568.3906 Q211.1719,567.9063 212.6406,567.9063 Q213.5938,567.9063 214.4844,568.1094 Q215.3906,568.2969 216.3281,568.7656 L215.5,570.5469 Q214.7188,570.1719 214.0625,569.9844 Q213.4063,569.7813 212.6094,569.7813 Z " fill="#000000"/><text fill="#000000" font-family="sans-serif" font-size="12" lengthAdjust="spacing" textLength="127" x="226.5" y="579.156">PowerMeterCollection</text><line style="stroke:#A80036;stroke-width:1.5;" x1="198.5" x2="355.5" y1="590.5" y2="590.5"/><line style="stroke:#A80036;stroke-width:1.5;" x1="198.5" x2="355.5" y1="598.5" y2="598.5"/><!--MD5=[6b0c9ced54af7abbc6700e31b6cfb44e]
class RestApi--><rect codeLine="44" fill="#FEFECE" filter="url(#f1rdze4sav0ztj)" height="48" id="RestApi" style="stroke:#A80036;stroke-width:1.5;" width="76" x="793" y="690"/><ellipse cx="808" cy="706" fill="#ADD1B2" rx="11" ry="11" style="stroke:#A80036;stroke-width:1.0;"/><path d="M808.1094,701.2813 Q807.1875,701.2813 806.4531,701.5938 Q805.7344,701.9063 805.2344,702.5 Q804.7344,703.0781 804.4531,703.9531 Q804.1875,704.8281 804.1875,705.9219 Q804.1875,707.3594 804.625,708.4063 Q805.0781,709.4531 805.9219,710 Q806.7813,710.5469 808.0938,710.5469 Q808.875,710.5469 809.5625,710.4219 Q810.2656,710.2813 811.2656,709.9688 L811.2656,711.8438 Q810.4063,712.1719 809.6406,712.2969 Q808.8906,712.4219 807.875,712.4219 Q805.9531,712.4219 804.6406,711.625 Q803.3438,710.8125 802.6875,709.3438 Q802.0313,707.8594 802.0313,705.8906 Q802.0313,704.4688 802.4219,703.2969 Q802.8281,702.1094 803.6094,701.2344 Q804.3906,700.3594 805.5313,699.8906 Q806.6719,699.4063 808.1406,699.4063 Q809.0938,699.4063 809.9844,699.6094 Q810.8906,699.7969 811.8281,700.2656 L811,702.0469 Q810.2188,701.6719 809.5625,701.4844 Q808.9063,701.2813 808.1094,701.2813 Z " fill="#000000"/><text fill="#000000" font-family="sans-serif" font-size="12" lengthAdjust="spacing" textLength="44" x="822" y="710.656">RestApi</text><line style="stroke:#A80036;stroke-width:1.5;" x1="794" x2="868" y1="722" y2="722"/><line style="stroke:#A80036;stroke-width:1.5;" x1="794" x2="868" y1="730" y2="730"/><path d="M161,823 L161,868.412 A0,0 0 0 0 161,868.412 L455,868.412 A0,0 0 0 0 455,868.412 L455,833 L445,823 L291.85,823 L223.35,753.15 L283.85,823 L161,823 A0,0 0 0 0 161,823 " fill="#FBFB77" filter="url(#f1rdze4sav0ztj)" style="stroke:#A80036;stroke-width:1.0;"/><path d="M445,823 L445,833 L455,833 L445,823 " fill="#FBFB77" style="stroke:#A80036;stroke-width:1.0;"/><text fill="#000000" font-family="sans-serif" font-size="13" lengthAdjust="spacing" textLength="273" x="167" y="841.897">VzLoggerData is used to unpack the raw-data</text><text fill="#000000" font-family="sans-serif" font-size="13" lengthAdjust="spacing" textLength="107" x="167" y="859.603">provided in IData.</text><path d="M134,1265.5 L134,1310.912 A0,0 0 0 0 134,1310.912 L452,1310.912 A0,0 0 0 0 452,1310.912 L452,1275.5 L442,1265.5 L292.07,1265.5 L273.9,1203.36 L284.07,1265.5 L134,1265.5 A0,0 0 0 0 134,1265.5 " fill="#FBFB77" filter="url(#f1rdze4sav0ztj)" style="stroke:#A80036;stroke-width:1.0;"/><path d="M442,1265.5 L442,1275.5 L452,1275.5 L442,1265.5 " fill="#FBFB77" style="stroke:#A80036;stroke-width:1.0;"/><text fill="#000000" font-family="sans-serif" font-size="13" lengthAdjust="spacing" textLength="231" x="140" y="1284.397">The meter reading and the associated</text><text fill="#000000" font-family="sans-serif" font-size="13" lengthAdjust="spacing" textLength="297" x="140" y="1302.103">timestamp of a read are hidden in the tuples field</text><path d="M357.5,274.5 L357.5,319.912 A0,0 0 0 0 357.5,319.912 L630.5,319.912 A0,0 0 0 0 630.5,319.912 L630.5,284.5 L620.5,274.5 L497.7,274.5 L492.41,179.06 L489.7,274.5 L357.5,274.5 A0,0 0 0 0 357.5,274.5 " fill="#FBFB77" filter="url(#f1rdze4sav0ztj)" style="stroke:#A80036;stroke-width:1.0;"/><path d="M620.5,274.5 L620.5,284.5 L630.5,284.5 L620.5,274.5 " fill="#FBFB77" style="stroke:#A80036;stroke-width:1.0;"/><text fill="#000000" font-family="sans-serif" font-size="13" lengthAdjust="spacing" textLength="197" x="363.5" y="293.397">CalculateMeanPower subscribes</text><text fill="#000000" font-family="sans-serif" font-size="13" lengthAdjust="spacing" textLength="252" x="363.5" y="311.103">to the NewMeterCollectionAvailable event</text><path d="M628.5,551 L628.5,614.118 A0,0 0 0 0 628.5,614.118 L883.5,614.118 A0,0 0 0 0 883.5,614.118 L883.5,561 L873.5,551 L737.11,551 L687.96,490.12 L729.11,551 L628.5,551 A0,0 0 0 0 628.5,551 " fill="#FBFB77" filter="url(#f1rdze4sav0ztj)" style="stroke:#A80036;stroke-width:1.0;"/><path d="M873.5,551 L873.5,561 L883.5,561 L873.5,551 " fill="#FBFB77" style="stroke:#A80036;stroke-width:1.0;"/><text fill="#000000" font-family="sans-serif" font-size="13" lengthAdjust="spacing" textLength="229" x="634.5" y="569.897">OnLastCollectionChanged is triggered</text><text fill="#000000" font-family="sans-serif" font-size="13" lengthAdjust="spacing" textLength="176" x="634.5" y="587.603">by the MeterReadings setter.</text><text fill="#000000" font-family="sans-serif" font-size="13" lengthAdjust="spacing" textLength="234" x="634.5" y="605.309">CallLoop is responsible for setting this.</text><!--MD5=[61bf5418844e2855d8c7d3837882ec54]
reverse link IRestGet to RestApi--><path codeLine="48" d="M610.73,613.86 C610.82,613.91 610.91,613.95 611,614 C673.84,645.19 748.63,677.95 792.83,696.87 " fill="none" id="IRestGet-backto-RestApi" style="stroke:#A80036;stroke-width:1.0;"/><polygon fill="none" points="607.6,620.13,593.05,604.73,614.03,607.69,607.6,620.13" style="stroke:#A80036;stroke-width:1.0;"/><!--MD5=[bb843b57814993860cd29f61ba148a36]
reverse link IAbstractData to VzLoggerData--><path codeLine="49" d="M139.03,768.29 C124.72,783.86 109.57,800.35 97.03,813.99 " fill="none" id="IAbstractData-backto-VzLoggerData" style="stroke:#A80036;stroke-width:1.0;"/><polygon fill="none" points="134.25,763.14,152.94,753.15,144.56,772.62,134.25,763.14" style="stroke:#A80036;stroke-width:1.0;"/><!--MD5=[de999afbed618c4ec5f0028cd0c3fc9a]
reverse link IPacket to VzLoggerPacket--><path codeLine="51" d="M69,1039.54 C69,1065.85 69,1096.64 69,1117.23 " fill="none" id="IPacket-backto-VzLoggerPacket" style="stroke:#A80036;stroke-width:1.0;"/><polygon fill="none" points="62,1039.26,69,1019.26,76,1039.26,62,1039.26" style="stroke:#A80036;stroke-width:1.0;"/><!--MD5=[6ee3f2d00cd58032b329c4e667b0a785]
reverse link IData to Data--><path codeLine="52" d="M183.62,1200.29 C153.82,1222.83 121.44,1247.33 98.72,1264.52 " fill="none" id="IData-backto-Data" style="stroke:#A80036;stroke-width:1.0;"/><polygon fill="none" points="179.66,1194.51,199.83,1188.02,188.1,1205.67,179.66,1194.51" style="stroke:#A80036;stroke-width:1.0;"/><!--MD5=[f8f0eae03fe95218e2b16acc296f8b8c]
link VzLoggerData to IPacket--><path codeLine="55" d="M69,877.22 C69,898.92 69,928.07 69,950.81 " fill="none" id="VzLoggerData-to-IPacket" style="stroke:#A80036;stroke-width:1.0;stroke-dasharray:7.0,7.0;"/><polygon fill="#A80036" points="69,955.85,73,946.85,69,950.85,65,946.85,69,955.85" style="stroke:#A80036;stroke-width:1.0;"/><text fill="#000000" font-family="sans-serif" font-size="13" lengthAdjust="spacing" textLength="46" x="70" y="921.897">&lt;uses&gt;</text><!--MD5=[2fb141dbecb1d618fcb7bbaff7cec5b3]
reverse link VzLoggerPacket to Data--><path codeLine="56" d="M69,1178.75 C69,1205.43 69,1240.9 69,1263.84 " fill="none" id="VzLoggerPacket-backto-Data" style="stroke:#A80036;stroke-width:1.0;"/><polygon fill="#A80036" points="69,1165.72,65,1171.72,69,1177.72,73,1171.72,69,1165.72" style="stroke:#A80036;stroke-width:1.0;"/><text fill="#000000" font-family="sans-serif" font-size="13" lengthAdjust="spacing" textLength="7" x="61.1906" y="1187.2651">0</text><text fill="#000000" font-family="sans-serif" font-size="13" lengthAdjust="spacing" textLength="7" x="61.0594" y="1252.0545">*</text><!--MD5=[034a13fa0a20457665f261e93f90e4ac]
reverse link IMeterEntity to MeterEntityController--><path codeLine="60" d="M341.14,340.68 C398.67,359.4 466.02,381.32 523.48,400.02 " fill="none" id="IMeterEntity-backto-MeterEntityController" style="stroke:#A80036;stroke-width:1.0;"/><polygon fill="none" points="338.89,347.31,322.04,334.46,343.22,334,338.89,347.31" style="stroke:#A80036;stroke-width:1.0;"/><!--MD5=[328aa24588e93e20c8471c490bbdcbbe]
reverse link IMeterEntity to IMeterCollection--><path codeLine="61" d="M210,349.56 C210,373.43 210,400.59 210,419.36 " fill="none" id="IMeterEntity-backto-IMeterCollection" style="stroke:#A80036;stroke-width:1.0;stroke-dasharray:7.0,7.0;"/><polygon fill="#FFFFFF" points="210,336.34,206,342.34,210,348.34,214,342.34,210,336.34" style="stroke:#A80036;stroke-width:1.0;"/><!--MD5=[8ef849a4f708829afb9ad25763d5bd37]
reverse link IMeterCollection to PowerMeterCollection--><path codeLine="62" d="M230.16,485.73 C241.75,509.43 255.89,538.33 265.58,558.15 " fill="none" id="IMeterCollection-backto-PowerMeterCollection" style="stroke:#A80036;stroke-width:1.0;"/><polygon fill="none" points="223.86,488.78,221.37,467.74,236.44,482.63,223.86,488.78" style="stroke:#A80036;stroke-width:1.0;"/><!--MD5=[b76249ea4929f2d7c34745115c2fcbec]
reverse link IMeterCollection to IAbstractData--><path codeLine="63" d="M197.26,480.29 C190.67,500.71 183.32,526.96 180,551 C174.18,593.12 178.01,641.91 182.13,674.85 " fill="none" id="IMeterCollection-backto-IAbstractData" style="stroke:#A80036;stroke-width:1.0;stroke-dasharray:7.0,7.0;"/><polygon fill="#FFFFFF" points="201.44,467.79,195.7464,472.2152,197.6413,479.1729,203.3349,474.7477,201.44,467.79" style="stroke:#A80036;stroke-width:1.0;"/><!--MD5=[8949825d1a4a639f3f3d0044b69b17f5]
reverse link MeterConfigurationWrapper to MeterConfiguration--><path codeLine="64" d="M720.62,184.53 C724.9,211.97 730.66,248.94 734.36,272.63 " fill="none" id="MeterConfigurationWrapper-backto-MeterConfiguration" style="stroke:#A80036;stroke-width:1.0;"/><polygon fill="#A80036" points="718.59,171.55,715.5609,178.094,720.4365,183.4071,723.4656,176.863,718.59,171.55" style="stroke:#A80036;stroke-width:1.0;"/><text fill="#000000" font-family="sans-serif" font-size="13" lengthAdjust="spacing" textLength="7" x="711.6119" y="193.4671">1</text><text fill="#000000" font-family="sans-serif" font-size="13" lengthAdjust="spacing" textLength="7" x="725.5304" y="261.1945">1</text><!--MD5=[8c7fdef331112459de53be0537399a3b]
link MeanPowerCalculator to IMeterEntity--><path codeLine="65" d="M433.57,179.06 C391.14,201.26 333.3,231.51 287.09,255.68 " fill="none" id="MeanPowerCalculator-to-IMeterEntity" style="stroke:#A80036;stroke-width:1.0;stroke-dasharray:7.0,7.0;"/><polygon fill="#A80036" points="282.65,258,292.4791,257.3767,287.0814,255.6842,288.7739,250.2865,282.65,258" style="stroke:#A80036;stroke-width:1.0;"/><text fill="#000000" font-family="sans-serif" font-size="13" lengthAdjust="spacing" textLength="46" x="378" y="223.897">&lt;uses&gt;</text><!--MD5=[efc5a7a4afef7dc2bedfceec4fca19f1]
link MeterEntityController to IRestGet--><path codeLine="69" d="M621.03,490.12 C605.79,511.22 588.18,535.58 574.98,553.85 " fill="none" id="MeterEntityController-to-IRestGet" style="stroke:#A80036;stroke-width:1.0;stroke-dasharray:7.0,7.0;"/><polygon fill="#A80036" points="571.73,558.35,580.2491,553.4079,574.6632,554.3008,573.7704,548.7148,571.73,558.35" style="stroke:#A80036;stroke-width:1.0;"/><!--MD5=[e212ca76cb2bc95f481b8a6ed01d6b42]
reverse link PowerMeterCollection to IAbstractData--><path codeLine="70" d="M253.59,617.57 C241.5,635.16 226.71,656.67 214.24,674.82 " fill="none" id="PowerMeterCollection-backto-IAbstractData" style="stroke:#A80036;stroke-width:1.0;"/><polygon fill="#A80036" points="261.09,606.65,254.3962,609.3319,254.2973,616.5423,260.9911,613.8604,261.09,606.65" style="stroke:#A80036;stroke-width:1.0;"/><text fill="#000000" font-family="sans-serif" font-size="13" lengthAdjust="spacing" textLength="7" x="249.3588" y="628.5915">0</text><text fill="#000000" font-family="sans-serif" font-size="13" lengthAdjust="spacing" textLength="7" x="211.2906" y="663.2901">*</text><!--MD5=[6dbd8a0ce49c3d393bfdc0c803b5dfe5]
reverse link Program to MeterConfigurationWrapper--><path codeLine="72" d="M795.9,64.53 C777.37,83.3 754.52,106.46 737.83,123.36 " fill="none" id="Program-backto-MeterConfigurationWrapper" style="stroke:#A80036;stroke-width:1.0;stroke-dasharray:7.0,7.0;"/><polygon fill="#FFFFFF" points="805.13,55.17,798.069,56.6336,796.7043,63.7144,803.7653,62.2508,805.13,55.17" style="stroke:#A80036;stroke-width:1.0;"/><!--MD5=[79374e4334ef8369cf6b5054f89700a7]
reverse link Program to RestApi--><path codeLine="73" d="M880.52,61.48 C908.42,81.36 937,110.52 937,146.5 C937,146.5 937,146.5 937,583.5 C937,628.82 897.64,667 866.89,689.9 " fill="none" id="Program-backto-RestApi" style="stroke:#A80036;stroke-width:1.0;stroke-dasharray:7.0,7.0;"/><polygon fill="#FFFFFF" points="869.52,54.05,872.259,60.7207,879.47,60.758,876.731,54.0873,869.52,54.05" style="stroke:#A80036;stroke-width:1.0;"/><!--MD5=[cb309d67979ddfc3a09a001c024be40e]
reverse link Program to MeterEntityController--><path codeLine="74" d="M838.83,68.19 C854.58,128.32 876.93,250.61 828,336 C813.47,361.35 790.24,381.43 765.42,396.99 " fill="none" id="Program-backto-MeterEntityController" style="stroke:#A80036;stroke-width:1.0;stroke-dasharray:7.0,7.0;"/><polygon fill="#FFFFFF" points="835.3,55.32,833.0256,62.163,838.4675,66.8944,840.7419,60.0514,835.3,55.32" style="stroke:#A80036;stroke-width:1.0;"/><!--MD5=[c6a46b5308162b1a6ba22ce6e1d5f8eb]
reverse link Program to MeanPowerCalculator--><path codeLine="75" d="M773.91,50.43 C722.09,68.09 642.95,95.06 581.7,115.93 " fill="none" id="Program-backto-MeanPowerCalculator" style="stroke:#A80036;stroke-width:1.0;stroke-dasharray:7.0,7.0;"/><polygon fill="#FFFFFF" points="786.46,46.15,779.4893,44.3035,775.1038,50.0277,782.0745,51.8743,786.46,46.15" style="stroke:#A80036;stroke-width:1.0;"/><!--MD5=[876d969b6b41f42ac1580b3b389e12fa]
@startuml
class Program 

interface IAbstractData{
    {field}+(ulong, double): DataTuple
    {field}+string: Uuid
}
interface IData{
    +string: uuid
    +long: last 
    +int: interval
    +string: protocol
    +double[][]: tuples
}
interface IPacket{
    {field}+Data[]: data
}

interface IMeterCollection
interface IMeterEntity{
    +IMeterCollection[]: MeterReadings
    +event: NewMeterCollectionAvailable
}

interface IRestGet

class VzLoggerData{
    {field}-IPacket: packet
}
class VzLoggerPacket
class Data

class MeanPowerCalculator{
    -void: CalculateMeanPower()
}
class MeterConfiguration
class MeterConfigurationWrapper
class MeterEntityController {
    +Task: CallLoop()
    -void: OnLastCollectionChanged()
    -void: HandleNewMeterCollection_DoWork()
}
class PowerMeterCollection

class RestApi

note "VzLoggerData is used to unpack the raw-data\nprovided in IData." as N1
note "The meter reading and the associated\ntimestamp of a read are hidden in the tuples field" as N2
IRestGet <|- - RestApi
IAbstractData <|- - VzLoggerData
IAbstractData ..N1
IPacket <|- - VzLoggerPacket
IData <|- - Data
IData .. N2

VzLoggerData ..> IPacket : <uses>
VzLoggerPacket "0" *- - "*" Data

note "CalculateMeanPower subscribes\nto the NewMeterCollectionAvailable event" as N3
note "OnLastCollectionChanged is triggered\nby the MeterReadings setter.\nCallLoop is responsible for setting this." as N4
IMeterEntity <|- - MeterEntityController
IMeterEntity o.. IMeterCollection
IMeterCollection <|- - PowerMeterCollection
IMeterCollection o.. IAbstractData
MeterConfigurationWrapper "1" *- - "1" MeterConfiguration
MeanPowerCalculator ..> IMeterEntity : <uses>
MeanPowerCalculator .. N3
MeterEntityController .. N4

MeterEntityController ..> IRestGet
PowerMeterCollection "0" *- - "*" IAbstractData

Program o.. MeterConfigurationWrapper
Program o.. RestApi
Program o.. MeterEntityController
Program o.. MeanPowerCalculator

@enduml

PlantUML version 1.2021.00(Sun Jan 10 11:25:05 CET 2021)
(MIT source distribution)
Java Runtime: OpenJDK Runtime Environment
JVM: OpenJDK 64-Bit Server VM
Default Encoding: UTF-8
Language: en
Country: US
--></g></svg>